<?xml version="1.0" encoding="UTF-8"?>
<!-- Created with Inkscape (http://www.inkscape.org/) -->
<svg width="117.37" height="107.64" version="1.1" viewBox="0 0 117.37 107.64" xmlns="http://www.w3.org/2000/svg">
 <g transform="translate(-222.33 -102.88)">
  <g fill-rule="evenodd">
   <path d="m334.49 151.57c2.9067 0 5.208 2.0587 5.208 4.724 0 2.664-2.3013 4.8453-5.208 4.8453-3.028 0-5.2093-2.1813-5.2093-4.8453 0-2.6653 2.1813-4.724 5.2093-4.724"/>
   <path d="m310.14 151.57c3.0293 0 5.3293 2.0587 5.3293 4.724 0 2.664-2.3 4.8453-5.3293 4.8453-2.9067 0-5.208-2.1813-5.208-4.8453 0-2.6653 2.3013-4.724 5.208-4.724" fill="#f58220"/>
   <path d="m310.02 124.32c2.908 0 5.2093 2.06 5.2093 4.724 0 2.7867-2.3013 4.8453-5.2093 4.8453-3.028 0-5.3293-2.0587-5.3293-4.8453 0-2.664 2.3013-4.724 5.3293-4.724"/>
   <path d="m334.25 124.44c2.9067 0 5.2093 2.0587 5.2093 4.724 0 2.664-2.3027 4.724-5.2093 4.724s-5.208-2.06-5.208-4.724c0-2.6653 2.3013-4.724 5.208-4.724" fill="#f58220"/>
   <path d="m286.52 151.57c3.028 0 5.3293 2.0587 5.3293 4.8453 0 2.664-2.3013 4.724-5.3293 4.724-2.9067 0-5.2067-2.06-5.2067-4.724 0-2.7867 2.3-4.8453 5.2067-4.8453" fill="#f58220"/>
   <path d="m263.51 124.68c2.9067 0 5.208 2.0587 5.208 4.724s-2.3013 4.724-5.208 4.724c-3.028 0-5.3293-2.0587-5.3293-4.724s2.3013-4.724 5.3293-4.724"/>
   <path d="m263.39 151.94c3.028 0 5.2093 2.0587 5.2093 4.724 0 2.7853-2.1813 4.8453-5.2093 4.8453s-5.208-2.06-5.208-4.8453c0-2.6653 2.18-4.724 5.208-4.724" fill="#f58220"/>
   <path d="m286.65 124.32c3.028 0 5.328 2.06 5.328 4.724 0 2.7867-2.3 4.8453-5.328 4.8453-2.908 0-5.2093-2.0587-5.2093-4.8453 0-2.664 2.3013-4.724 5.2093-4.724"/>
  </g>
  <g fill="#f58220" fill-rule="evenodd">
   <path d="m309.9 175.92c3.0293 0 5.2093 2.0587 5.2093 4.724s-2.18 4.724-5.2093 4.724c-3.0267 0-5.208-2.0587-5.208-4.724s2.1813-4.724 5.208-4.724"/>
   <path d="m334.13 175.92c2.908 0 5.2093 2.0587 5.2093 4.724 0 2.7853-2.3013 4.8453-5.2093 4.8453-2.9067 0-5.208-2.06-5.208-4.8453 0-2.6653 2.3013-4.724 5.208-4.724"/>
   <path d="m263.39 176.16c2.9067 0 5.2093 2.0587 5.2093 4.7253 0 2.6627-2.3027 4.724-5.2093 4.724-3.028 0-5.3293-2.0613-5.3293-4.724 0-2.6667 2.3013-4.7253 5.3293-4.7253"/>
   <path d="m286.52 175.92c3.028 0 5.3293 2.0587 5.3293 4.724s-2.3013 4.724-5.3293 4.724c-2.9067 0-5.2067-2.0587-5.2067-4.724s2.3-4.724 5.2067-4.724"/>
  </g>
  <g fill="#808080" fill-rule="evenodd">
   <path d="m286.04 204.02c0.96933 0 1.696 0.72667 1.696 1.696s-0.72667 1.696-1.696 1.696c-0.968 0-1.6947-0.72667-1.6947-1.696s0.72667-1.696 1.6947-1.696"/>
   <path d="m286.04 198.57c0.96933 0 1.696 0.72667 1.696 1.6947 0 0.97066-0.72667 1.6973-1.696 1.6973-0.968 0-1.6947-0.72667-1.6947-1.6973 0-0.968 0.72667-1.6947 1.6947-1.6947"/>
   <path d="m286.04 193.12c0.96933 0 1.696 0.72667 1.696 1.696s-0.72667 1.696-1.696 1.696c-0.968 0-1.6947-0.72667-1.6947-1.696s0.72667-1.696 1.6947-1.696"/>
  </g>
  <g fill="none" stroke-linejoin="round" stroke-miterlimit="10">
   <path d="m231.05 121.29c-2.18 0-4.36 3.6347-4.36 7.3893v29.553c0 3.6347-2.1813 7.3893-4.3613 7.3893 2.18 0 4.3613 3.6347 4.3613 7.268v29.553c0 3.7547 2.18 7.388 4.36 7.388" stroke="#b2b2b2" stroke-width=".68533"/>
   <path d="m320.68 107.24c0-1.0893-2.908-2.18-5.936-2.18h-24.103c-2.908 0-5.936-1.0893-5.936-2.18 0 1.0907-3.028 2.18-6.056 2.18h-23.984c-3.0267 0-6.056 1.0907-6.056 2.18" stroke="#b2b2b2" stroke-width=".68533"/>
   <g stroke="#000" stroke-width="1.3707">
    <path d="m254.67 120.69c-0.60533 0-1.2093 0.24267-1.6947 0.60533"/>
    <path d="m252 122.62c-0.12133 0.24133-0.24267 0.60533-0.24267 0.84667v0.848"/>
    <path d="m251.76 126.14v1.6947"/>
    <path d="m251.76 129.53v1.816"/>
    <path d="m251.76 133.04v1.816"/>
    <path d="m252.37 136.43c0.24267 0.484 0.728 0.96933 1.212 1.212"/>
    <path d="m255.27 137.89h1.8173"/>
    <path d="m258.79 137.89h1.8173"/>
    <path d="m262.3 137.89h1.816"/>
    <path d="m265.81 137.89h1.8173"/>
    <path d="m269.33 137.89h1.816"/>
    <path d="m272.84 137.89h1.8173"/>
    <path d="m276.35 137.89h1.696"/>
    <path d="m279.86 137.89h1.696"/>
    <path d="m283.38 137.89h1.696"/>
    <path d="m286.89 137.89h1.696"/>
    <path d="m290.4 137.89h1.6947"/>
    <path d="m293.91 137.89h1.696"/>
    <path d="m297.31 137.89h1.816"/>
    <path d="m300.82 137.89h1.8173"/>
    <path d="m304.33 137.89h1.816"/>
    <path d="m307.84 137.89h1.8173"/>
    <path d="m311.35 137.89h1.8187"/>
    <path d="m314.87 137.89h1.696"/>
    <path d="m318.38 137.76c0.48533-0.12133 1.0907-0.364 1.4547-0.84933"/>
    <path d="m320.68 135.46c0-0.12133 0.12-0.36267 0.12-0.484v-1.332"/>
    <path d="m320.8 131.95v-1.696"/>
    <path d="m320.8 128.44v-1.696"/>
    <path d="m320.8 124.92v-1.4533c0-0.12134 0-0.12134-0.12-0.24267"/>
    <path d="m319.96 121.65c-0.364-0.48533-0.84933-0.72667-1.4533-0.96933"/>
    <path d="m316.81 120.68h-1.8173"/>
    <path d="m313.29 120.68h-1.816"/>
    <path d="m309.78 120.68h-1.8173"/>
    <path d="m306.27 120.68h-1.8173"/>
    <path d="m302.76 120.68h-1.8173"/>
    <path d="m299.24 120.68h-1.696"/>
    <path d="m295.73 120.68h-1.696"/>
    <path d="m292.22 120.68h-1.696"/>
    <path d="m288.71 120.68h-1.696"/>
    <path d="m285.19 120.68h-1.696"/>
    <path d="m281.68 120.68h-1.696"/>
    <path d="m278.29 120.68h-1.816"/>
    <path d="m274.78 120.68h-1.8173"/>
    <path d="m271.26 120.68h-1.8173"/>
    <path d="m267.75 120.68h-1.816"/>
    <path d="m264.24 120.68h-1.8173"/>
    <path d="m260.73 120.68h-1.696"/>
    <path d="m257.21 120.68h-1.6947"/>
   </g>
   <path d="m254.31 144.91c-1.332 0-2.544 1.3333-2.544 2.544v59.836c0 1.212 1.212 2.5427 2.544 2.5427h63.955c1.2107 0 2.4227-1.3307 2.4227-2.5427v-59.836c0-1.2107-1.212-2.544-2.4227-2.544z" stroke="#0066b3" stroke-width="1.3707"/>
  </g>
 </g>
</svg>
